<svg id="visual" viewBox="0 0 960 300" width="960" height="300" xmlns="http://www.w3.org/2000/svg" xmlns:xlink="http://www.w3.org/1999/xlink" version="1.1"><rect x="0" y="0" width="960" height="300" fill="#000000"></rect><path d="M0 180L22.8 180.5C45.7 181 91.3 182 137 188.5C182.7 195 228.3 207 274 211.3C319.7 215.7 365.3 212.3 411.2 213C457 213.7 503 218.3 548.8 216.7C594.7 215 640.3 207 686 204.3C731.7 201.7 777.3 204.3 823 207.3C868.7 210.3 914.3 213.7 937.2 215.3L960 217L960 301L937.2 301C914.3 301 868.7 301 823 301C777.3 301 731.7 301 686 301C640.3 301 594.7 301 548.8 301C503 301 457 301 411.2 301C365.3 301 319.7 301 274 301C228.3 301 182.7 301 137 301C91.3 301 45.7 301 22.8 301L0 301Z" fill="#000000"></path><path d="M0 227L22.8 224.8C45.7 222.7 91.3 218.3 137 220.2C182.7 222 228.3 230 274 227.3C319.7 224.7 365.3 211.3 411.2 206.2C457 201 503 204 548.8 209.2C594.7 214.3 640.3 221.7 686 225C731.7 228.3 777.3 227.7 823 229.3C868.7 231 914.3 235 937.2 237L960 239L960 301L937.2 301C914.3 301 868.7 301 823 301C777.3 301 731.7 301 686 301C640.3 301 594.7 301 548.8 301C503 301 457 301 411.2 301C365.3 301 319.7 301 274 301C228.3 301 182.7 301 137 301C91.3 301 45.7 301 22.8 301L0 301Z" fill="#001e88"></path><path d="M0 218L22.8 221.8C45.7 225.7 91.3 233.3 137 238.5C182.7 243.7 228.3 246.3 274 243.8C319.7 241.3 365.3 233.7 411.2 229C457 224.3 503 222.7 548.8 226.5C594.7 230.3 640.3 239.7 686 243.3C731.7 247 777.3 245 823 243.8C868.7 242.7 914.3 242.3 937.2 242.2L960 242L960 301L937.2 301C914.3 301 868.7 301 823 301C777.3 301 731.7 301 686 301C640.3 301 594.7 301 548.8 301C503 301 457 301 411.2 301C365.3 301 319.7 301 274 301C228.3 301 182.7 301 137 301C91.3 301 45.7 301 22.8 301L0 301Z" fill="#003eb2"></path><path d="M0 244L22.8 243.3C45.7 242.7 91.3 241.3 137 242.2C182.7 243 228.3 246 274 250.3C319.7 254.7 365.3 260.3 411.2 259.7C457 259 503 252 548.8 248.5C594.7 245 640.3 245 686 248C731.7 251 777.3 257 823 261.3C868.7 265.7 914.3 268.3 937.2 269.7L960 271L960 301L937.2 301C914.3 301 868.7 301 823 301C777.3 301 731.7 301 686 301C640.3 301 594.7 301 548.8 301C503 301 457 301 411.2 301C365.3 301 319.7 301 274 301C228.3 301 182.7 301 137 301C91.3 301 45.7 301 22.8 301L0 301Z" fill="#055dd8"></path><path d="M0 272L22.8 273.8C45.7 275.7 91.3 279.3 137 279.5C182.7 279.7 228.3 276.3 274 274C319.7 271.7 365.3 270.3 411.2 268.5C457 266.7 503 264.3 548.8 263.2C594.7 262 640.3 262 686 263.8C731.7 265.7 777.3 269.3 823 272.7C868.7 276 914.3 279 937.2 280.5L960 282L960 301L937.2 301C914.3 301 868.7 301 823 301C777.3 301 731.7 301 686 301C640.3 301 594.7 301 548.8 301C503 301 457 301 411.2 301C365.3 301 319.7 301 274 301C228.3 301 182.7 301 137 301C91.3 301 45.7 301 22.8 301L0 301Z" fill="#027dff"></path></svg>